<svg width="25" height="25" viewBox="0 0 25 25" fill="none" xmlns="http://www.w3.org/2000/svg">
<path fill-rule="evenodd" clip-rule="evenodd" d="M4.09961 12.4999C4.09961 12.0029 4.50255 11.5999 4.99961 11.5999L17.7651 11.5999L12.7758 6.8487C12.4175 6.50418 12.4063 5.93445 12.7509 5.57615C13.0954 5.21786 13.6651 5.20669 14.0234 5.5512L20.6234 11.8512C20.7999 12.0209 20.8996 12.2551 20.8996 12.4999C20.8996 12.7448 20.7999 12.979 20.6234 13.1487L14.0234 19.4487C13.6651 19.7932 13.0954 19.782 12.7509 19.4237C12.4063 19.0655 12.4175 18.4957 12.7758 18.1512L17.7651 13.3999L4.99961 13.3999C4.50255 13.3999 4.09961 12.997 4.09961 12.4999Z" fill="white"/>
</svg>
