<svg width="51" height="75" viewBox="0 0 51 75" fill="none" xmlns="http://www.w3.org/2000/svg">
<path d="M26.1265 62.3611L44.1101 56.2532C46.0104 55.6095 47.025 53.5444 46.3812 51.644C45.7375 49.7437 43.6723 48.7292 41.7772 49.3729L23.7936 55.4808C21.8933 56.1245 20.8787 58.1896 21.5225 60.0848C22.1662 61.9903 24.2262 63.0099 26.1265 62.3611Z" stroke="#4D2C5E" stroke-width="3" stroke-miterlimit="10"/>
<path d="M28.4903 69.3232L46.4738 63.2154C48.3742 62.5717 49.3887 60.5065 48.745 58.6114C48.1012 56.711 46.0361 55.6965 44.1358 56.3402L26.1522 62.4429C24.2519 63.0867 23.2373 65.1518 23.8811 67.0521C24.53 68.9524 26.59 69.967 28.4903 69.3232Z" stroke="#4D2C5E" stroke-width="3" stroke-miterlimit="10"/>
<path d="M44.4759 30.5912C44.4553 30.653 44.4398 30.7097 44.4192 30.7715C44.0175 32.0538 41.6486 40.1804 42.6373 49.1979L23.3457 55.5633C18.7726 47.7302 12.0313 42.6163 10.9447 41.8232C10.8932 41.7872 10.8417 41.7511 10.7953 41.7151C10.27 41.3391 9.76018 40.9374 9.26579 40.51C6.36123 38.002 4.07468 34.7009 2.78719 30.7972C-1.00831 19.3026 5.23339 6.90667 16.728 3.11117C28.2227 -0.684328 40.6186 5.55739 44.4141 17.052C45.7067 20.9608 45.8355 24.9727 44.9909 28.7167C44.8467 29.3449 44.6767 29.9732 44.4759 30.5912Z" stroke="#4D2C5E" stroke-width="3" stroke-miterlimit="10"/>
<path d="M45.4901 63.6384C45.7064 67.4494 43.3581 71.0801 39.5574 72.3366C35.8083 73.5726 31.817 72.1049 29.6953 68.9995L45.4901 63.6384Z" stroke="#4D2C5E" stroke-width="3" stroke-miterlimit="10"/>
<path d="M36.5962 51.0887L30.8644 33.7179C30.2979 32.0081 31.23 30.1645 32.9398 29.598C34.6496 29.0315 36.4933 29.9636 37.0598 31.6734C37.6262 33.3832 36.6941 35.2269 34.9843 35.7933L28.104 38.0645" stroke="#4D2C5E" stroke-width="3" stroke-miterlimit="10"/>
<path d="M29.0361 53.5858L23.3043 36.2151C22.7378 34.5054 20.8941 33.5784 19.1843 34.1397C17.4745 34.7062 16.5475 36.5499 17.1089 38.2596C17.6754 39.9694 19.519 40.8964 21.2288 40.3351L28.1092 38.0639" stroke="#4D2C5E" stroke-width="3" stroke-miterlimit="10"/>
</svg>
