<svg width="82" height="81" viewBox="0 0 82 81" fill="none" xmlns="http://www.w3.org/2000/svg">
<g opacity="0.1">
<path d="M64.7193 49.0215C63.1036 50.2703 62.8324 52.5632 64.1142 54.1373C65.396 55.7113 67.7494 55.9755 69.365 54.7267C70.9807 53.4779 71.2519 51.1851 69.9701 49.611C68.6883 48.0369 66.3383 47.7701 64.7193 49.0215Z" stroke="#4D2C5E" stroke-width="2" stroke-miterlimit="10" stroke-linecap="round" stroke-linejoin="round"/>
<path d="M16.7875 40.9739C15.5046 39.3985 15.7755 37.1081 17.3926 35.8582C19.0096 34.6083 21.3605 34.8722 22.6434 36.4477C23.9263 38.0231 23.6554 40.3135 22.0384 41.5634C20.4213 42.8133 18.0704 42.5494 16.7875 40.9739Z" stroke="#4D2C5E" stroke-width="2" stroke-miterlimit="10" stroke-linecap="round" stroke-linejoin="round"/>
<path d="M34.4813 44.7977C31.7453 41.4377 32.323 36.553 35.7717 33.8873C39.2205 31.2217 44.2342 31.7845 46.9703 35.1445C49.7063 38.5045 49.1286 43.3892 45.6799 46.0549C42.2311 48.7205 37.2174 48.1577 34.4813 44.7977Z" stroke="#4D2C5E" stroke-width="2" stroke-miterlimit="10" stroke-linecap="round" stroke-linejoin="round"/>
<path d="M32.0934 29.3708L30.1054 34.2136L26.9288 38.4221L29.0404 43.2182L29.8451 48.3806L34.8219 50.3182L39.1381 53.4157L44.0644 51.3558L49.3597 50.5744L51.3484 45.7256L54.5277 41.5205L52.4135 36.721L51.6087 31.5587L46.6319 29.621L42.3184 26.5269L37.3895 28.5834L32.0934 29.3708Z" stroke="#4D2C5E" stroke-width="2" stroke-miterlimit="10" stroke-linecap="round" stroke-linejoin="round"/>
<path d="M22.0387 41.5636C23.6544 40.3148 23.9256 38.0219 22.6438 36.4478C21.9515 35.5977 20.9444 35.1316 19.9131 35.0792C20.9941 30.7048 23.5192 26.6374 27.4185 23.6234C36.6864 16.46 50.1588 17.9724 57.5115 27.0018C64.8642 36.0312 63.3118 49.157 54.0439 56.3205C44.7761 63.484 31.3036 61.9715 23.9509 52.9421C21.3657 49.7674 19.8868 46.0893 19.4506 42.3411C20.348 42.3996 21.2752 42.1537 22.0387 41.5636Z" stroke="#4D2C5E" stroke-width="2" stroke-miterlimit="10" stroke-linecap="round" stroke-linejoin="round"/>
<path d="M63.4332 22.4192C69.6447 30.0471 71.1593 39.8392 68.3664 48.4749C67.1764 48.0365 65.7855 48.1972 64.7152 49.0245C63.0995 50.2733 62.8283 52.5661 64.1101 54.1402C64.4265 54.5287 64.8085 54.8341 65.2248 55.0588C63.528 57.6744 61.366 60.0597 58.738 62.091C46.198 71.7837 27.9637 69.7367 18.015 57.5193C8.06633 45.3019 10.1675 27.5368 22.7075 17.8441C35.2476 8.15139 53.4846 10.2018 63.4332 22.4192Z" stroke="#4D2C5E" stroke-width="2" stroke-miterlimit="10" stroke-linecap="round" stroke-linejoin="round"/>
</g>
</svg>
