<svg width="35" height="37" viewBox="0 0 35 37" fill="none" xmlns="http://www.w3.org/2000/svg">
	<path d="M32.7249 18.5H29.1416C28.6664 18.5 28.2107 18.6888 27.8747 19.0248C27.5387 19.3608 27.3499 19.8165 27.3499 20.2917C27.3499 20.7669 27.5387 21.2226 27.8747 21.5586C28.2107 21.8946 28.6664 22.0834 29.1416 22.0834V25.6667H27.0198C27.2322 25.093 27.3439 24.4868 27.3499 23.875C27.3501 22.6918 26.9598 21.5416 26.2395 20.6028C25.5192 19.664 24.5093 18.9892 23.3663 18.683C22.2234 18.3769 21.0113 18.4565 19.9183 18.9095C18.8252 19.3625 17.9121 20.1635 17.3208 21.1884C17.202 21.3923 17.1247 21.6176 17.0932 21.8514C17.0618 22.0853 17.0768 22.323 17.1375 22.551C17.1981 22.779 17.3033 22.9928 17.4468 23.1801C17.5903 23.3673 17.7694 23.5244 17.9738 23.6423C18.1782 23.7601 18.4038 23.8365 18.6378 23.8669C18.8718 23.8973 19.1095 23.8812 19.3372 23.8195C19.5649 23.7578 19.7782 23.6517 19.9649 23.5074C20.1515 23.363 20.3078 23.1832 20.4247 22.9783C20.5821 22.7064 20.8081 22.4806 21.0802 22.3236C21.3522 22.1665 21.6608 22.0837 21.9749 22.0834C22.4501 22.0834 22.9058 22.2721 23.2418 22.6081C23.5778 22.9442 23.7666 23.3999 23.7666 23.875C23.7666 24.3502 23.5778 24.8059 23.2418 25.1419C22.9058 25.478 22.4501 25.6667 21.9749 25.6667C21.4997 25.6667 21.044 25.8555 20.708 26.1915C20.372 26.5275 20.1833 26.9832 20.1833 27.4584C20.1833 27.9336 20.372 28.3893 20.708 28.7253C21.044 29.0613 21.4997 29.25 21.9749 29.25C22.4501 29.25 22.9058 29.4388 23.2418 29.7748C23.5778 30.1108 23.7666 30.5665 23.7666 31.0417C23.7666 31.5169 23.5778 31.9726 23.2418 32.3086C22.9058 32.6446 22.4501 32.8334 21.9749 32.8334C21.6608 32.8331 21.3522 32.7502 21.0802 32.5932C20.8081 32.4361 20.5821 32.2103 20.4247 31.9384C20.3078 31.7335 20.1515 31.5537 19.9649 31.4094C19.7782 31.265 19.5649 31.1589 19.3372 31.0972C19.1095 31.0355 18.8718 31.0194 18.6378 31.0498C18.4039 31.0803 18.1782 31.1566 17.9738 31.2745C17.7694 31.3923 17.5903 31.5494 17.4468 31.7367C17.3033 31.9239 17.1982 32.1377 17.1375 32.3657C17.0768 32.5937 17.0618 32.8315 17.0932 33.0653C17.1247 33.2991 17.202 33.5244 17.3208 33.7283C17.9121 34.7532 18.8252 35.5543 19.9183 36.0072C21.0114 36.4602 22.2234 36.5398 23.3663 36.2337C24.5093 35.9275 25.5192 35.2527 26.2395 34.3139C26.9598 33.3752 27.3501 32.225 27.3499 31.0417C27.3439 30.4299 27.2322 29.8238 27.0198 29.25H29.1416V34.625C29.1416 35.1002 29.3303 35.556 29.6664 35.892C30.0024 36.228 30.4581 36.4167 30.9333 36.4167C31.4084 36.4167 31.8641 36.228 32.2001 35.892C32.5362 35.556 32.7249 35.1002 32.7249 34.625V22.0834C33.2001 22.0834 33.6558 21.8946 33.9918 21.5586C34.3278 21.2226 34.5166 20.7669 34.5166 20.2917C34.5166 19.8165 34.3278 19.3608 33.9918 19.0248C33.6558 18.6888 33.2001 18.5 32.7249 18.5ZM11.2792 17.1432C11.3945 17.604 11.6881 18.0001 12.0955 18.2444C12.2972 18.3653 12.5208 18.4454 12.7534 18.4799C12.9861 18.5145 13.2232 18.5029 13.4514 18.4458C13.6796 18.3887 13.8942 18.2872 14.0832 18.1472C14.2721 18.0071 14.4316 17.8312 14.5526 17.6295C14.6735 17.4278 14.7536 17.2042 14.7882 16.9716C14.8227 16.7389 14.8111 16.5017 14.754 16.2736L11.6063 3.67856C11.3854 2.79449 10.8753 2.00966 10.157 1.44883C9.43882 0.888004 8.55372 0.583374 7.64246 0.583374C6.73121 0.583374 5.84611 0.888004 5.12788 1.44883C4.40965 2.00966 3.89952 2.79449 3.67858 3.67856L0.529171 16.2736C0.413855 16.7344 0.486311 17.2221 0.7306 17.6295C0.974889 18.0368 1.371 18.3305 1.83179 18.4458C2.29259 18.5611 2.78032 18.4887 3.18769 18.2444C3.59506 18.0001 3.8887 17.604 4.00402 17.1432L5.00877 13.125H10.275L11.2792 17.1432ZM5.90482 9.54172L7.15343 4.54814C7.19129 4.44913 7.25831 4.36394 7.34563 4.30384C7.43295 4.24374 7.53646 4.21156 7.64246 4.21156C7.74847 4.21156 7.85198 4.24374 7.9393 4.30384C8.02662 4.36394 8.09364 4.44913 8.1315 4.54814L9.37945 9.54172H5.90482ZM20.1833 9.54172H21.9749C22.45 9.54219 22.9054 9.73111 23.2413 10.067C23.5772 10.4029 23.7661 10.8583 23.7666 11.3334V13.125C23.7666 13.6002 23.9553 14.0559 24.2914 14.3919C24.6274 14.728 25.0831 14.9167 25.5583 14.9167C26.0334 14.9167 26.4891 14.728 26.8251 14.3919C27.1612 14.0559 27.3499 13.6002 27.3499 13.125V11.3334C27.3484 9.90832 26.7816 8.54207 25.7739 7.5344C24.7662 6.52673 23.4 5.95994 21.9749 5.95838H20.1833C19.7081 5.95838 19.2524 6.14715 18.9164 6.48315C18.5804 6.81915 18.3916 7.27487 18.3916 7.75005C18.3916 8.22523 18.5804 8.68095 18.9164 9.01695C19.2524 9.35295 19.7081 9.54172 20.1833 9.54172ZM13.0166 25.6667H11.2249C10.7499 25.6662 10.2944 25.4773 9.95854 25.1414C9.62264 24.8055 9.43373 24.3501 9.43325 23.875V22.0834C9.43325 21.6082 9.24449 21.1525 8.90849 20.8165C8.57248 20.4805 8.11677 20.2917 7.64159 20.2917C7.16641 20.2917 6.71069 20.4805 6.37469 20.8165C6.03868 21.1525 5.84992 21.6082 5.84992 22.0834V23.875C5.85147 25.3001 6.41827 26.6664 7.42594 27.674C8.43361 28.6817 9.79986 29.2485 11.2249 29.25H13.0166C13.4918 29.25 13.9475 29.0613 14.2835 28.7253C14.6195 28.3893 14.8083 27.9336 14.8083 27.4584C14.8083 26.9832 14.6195 26.5275 14.2835 26.1915C13.9475 25.8555 13.4918 25.6667 13.0166 25.6667Z" fill="#1C8291" />
</svg>
