<svg width="322" height="831" viewBox="0 0 322 831" fill="none" xmlns="http://www.w3.org/2000/svg">
<g opacity="0.2">
<path fill-rule="evenodd" clip-rule="evenodd" d="M647.865 123.541C701.028 175.502 762.695 221.804 780.383 294.337C801.217 379.77 798.82 474.654 748.997 538.25C697.564 603.901 609.793 618.348 526.038 618.99C440.5 619.645 354.407 599.769 283.368 541.815C203.524 476.678 119.967 389.738 119.597 287.411C119.236 187.722 209.66 129.355 281.668 72.0303C338.87 26.4914 405.174 -9.89628 479.857 0.608798C547.727 10.1558 595.676 72.5326 647.865 123.541Z" stroke="#911C82"/>
<path fill-rule="evenodd" clip-rule="evenodd" d="M706.059 119.776C775.148 189.127 779.524 298.603 776.12 394.67C773.156 478.329 741.74 553.013 688.674 610.415C637.208 666.085 569.239 711.924 492.394 701.573C420.625 691.907 382.077 607.812 321.652 560.98C241.635 498.965 113.695 486.858 87.2579 387.581C60.1974 285.962 136.134 193.834 206.759 129.529C270.287 71.6864 357.705 63.7645 444.769 62.0639C535.431 60.2929 636.868 50.3239 706.059 119.776Z" stroke="#911C82"/>
<path fill-rule="evenodd" clip-rule="evenodd" d="M709.75 145.198C785.395 194.668 840.97 293.099 834.228 382.808C827.863 467.516 736.175 497.32 679.139 552.533C629.864 600.233 595.881 668.534 527.994 679.254C450.786 691.447 359.234 676.678 303.125 611.912C248.843 549.255 276.677 458.54 266.115 376.972C254.275 285.527 178.228 172.246 238.5 112.826C299.49 52.6988 402.039 151.137 489.121 157.119C566.298 162.42 641.487 100.557 709.75 145.198Z" stroke="#911C82"/>
<path fill-rule="evenodd" clip-rule="evenodd" d="M681.017 111.986C747.238 171.154 770.779 269.322 767.037 356.753C763.683 435.12 704.274 484.172 662.469 545.359C611.363 620.158 589.6 741.814 499.763 747.943C409.395 754.107 350.676 640.406 280.759 571.397C210.101 501.657 102.279 448.112 96.4538 349.873C90.6458 251.922 184.194 194.456 255.111 138.855C311.134 94.9328 377.542 77.5984 449.526 73.0571C529.063 68.0394 616.821 54.627 681.017 111.986Z" stroke="#911C82"/>
<path fill-rule="evenodd" clip-rule="evenodd" d="M650.575 132.543C695.312 187.974 760.751 227.249 774.69 296.756C790.178 373.992 762.55 446.058 726.26 509.957C678.866 593.408 634.04 695.453 540.751 708.67C441.328 722.757 339.322 655.927 264.782 575.341C193.307 498.07 151.436 393.584 153.829 290.371C156.022 195.808 216.686 126.005 276.7 61.3534C334.305 -0.70343 397.637 -80.7209 483.182 -64.4321C565.768 -48.7069 594.248 62.7528 650.575 132.543Z" stroke="#911C82"/>
<path fill-rule="evenodd" clip-rule="evenodd" d="M619.483 162.101C687.542 225.498 809.123 261.635 808.781 353.484C808.435 446.331 681.177 453.111 618.182 511.762C566.733 559.663 550.317 659.769 479.052 660.477C407.638 661.185 368.349 567.416 312.179 514.799C252.166 458.584 153.486 428.107 143.994 346.62C134.458 264.765 222.994 224.62 271.529 165.865C322.297 104.407 349.717 1.40143 429.88 0.534297C510.259 -0.335187 556.104 103.063 619.483 162.101Z" stroke="#911C82"/>
<path fill-rule="evenodd" clip-rule="evenodd" d="M640.009 145.428C686.253 196.061 707.381 260.361 721.291 327.387C738.503 410.321 766.161 499.258 727.777 568.326C683.606 647.807 602.583 714.584 512.045 703.905C424.616 693.592 376.304 590.355 313.94 519.511C258.877 456.96 189.93 403.195 175.439 321.526C159.598 232.253 175.884 134.94 235.486 77.3615C292.489 22.2931 382.056 30.5775 462.586 44.1276C529.827 55.4418 591.001 91.7691 640.009 145.428Z" stroke="#911C82"/>
<path fill-rule="evenodd" clip-rule="evenodd" d="M643.461 130.656C699.112 187.947 710.506 271.766 717.023 350.696C723.615 430.548 722.44 511.74 680.008 573.343C633.02 641.559 563.063 706.49 479.986 694.823C400.131 683.608 355.655 589.806 303.762 520.502C263.444 466.657 229.705 411.256 218.426 345.507C205.545 270.408 194.967 187.882 237.011 131.356C280.951 72.2802 358.636 57.8738 432.46 57.7467C507.29 57.6179 587.125 72.6596 643.461 130.656Z" stroke="#911C82"/>
</g>
</svg>
