<svg width="43" height="25" viewBox="0 0 43 25" fill="none" xmlns="http://www.w3.org/2000/svg">
	<path d="M0.0410156 12.5918V12.1836C0.0410156 10.5221 0.298828 8.9681 0.814453 7.52148C1.33008 6.07487 2.07487 4.81445 3.04883 3.74023C4.02279 2.66602 5.1901 1.82812 6.55078 1.22656C7.92578 0.625 9.47266 0.324219 11.1914 0.324219C12.6953 0.324219 14.0417 0.582031 15.2305 1.09766C16.4193 1.59896 17.4648 2.27214 18.3672 3.11719C19.2695 3.94792 20.043 4.87174 20.6875 5.88867C21.3464 6.9056 21.8835 7.94401 22.2988 9.00391C22.7285 10.0495 23.0579 11.0234 23.2871 11.9258V12.4844C23.0579 13.3867 22.7285 14.375 22.2988 15.4492C21.8835 16.5234 21.3535 17.5905 20.709 18.6504C20.0645 19.7103 19.2839 20.6771 18.3672 21.5508C17.4648 22.4245 16.4264 23.1263 15.252 23.6562C14.0775 24.1719 12.7383 24.4297 11.2344 24.4297C9.5013 24.4297 7.94727 24.1289 6.57227 23.5273C5.19727 22.9258 4.02279 22.0879 3.04883 21.0137C2.07487 19.9395 1.33008 18.6862 0.814453 17.2539C0.298828 15.8073 0.0410156 14.2533 0.0410156 12.5918ZM6.55078 12.1836V12.5918C6.55078 13.5085 6.6582 14.3607 6.87305 15.1484C7.10221 15.9219 7.43164 16.6022 7.86133 17.1895C8.29102 17.7767 8.82096 18.235 9.45117 18.5645C10.0814 18.8796 10.8118 19.0371 11.6426 19.0371C12.4733 19.0371 13.2109 18.8509 13.8555 18.4785C14.5143 18.0918 15.0872 17.612 15.5742 17.0391C16.0612 16.4661 16.4622 15.8717 16.7773 15.2559C17.1068 14.64 17.3574 14.0814 17.5293 13.5801C17.7012 13.0645 17.8014 12.6992 17.8301 12.4844V11.9258C17.8014 11.7253 17.7012 11.3887 17.5293 10.916C17.3574 10.429 17.1139 9.89193 16.7988 9.30469C16.4837 8.71745 16.0827 8.15169 15.5957 7.60742C15.1087 7.06315 14.5358 6.61198 13.877 6.25391C13.2181 5.89583 12.459 5.7168 11.5996 5.7168C10.7832 5.7168 10.0599 5.88867 9.42969 6.23242C8.8138 6.56185 8.29102 7.02018 7.86133 7.60742C7.43164 8.19466 7.10221 8.88216 6.87305 9.66992C6.6582 10.4577 6.55078 11.2956 6.55078 12.1836ZM42.3438 12.1836V12.5918C42.3438 14.2533 42.0859 15.8073 41.5703 17.2539C41.0547 18.6862 40.3099 19.9395 39.3359 21.0137C38.362 22.0879 37.1803 22.9258 35.791 23.5273C34.416 24.1289 32.862 24.4297 31.1289 24.4297C29.625 24.4297 28.2858 24.1719 27.1113 23.6562C25.9368 23.1263 24.8913 22.4245 23.9746 21.5508C23.0723 20.6771 22.2988 19.7103 21.6543 18.6504C21.0098 17.5905 20.4727 16.5234 20.043 15.4492C19.6133 14.375 19.2839 13.3867 19.0547 12.4844V11.9258C19.2839 11.0234 19.6133 10.0495 20.043 9.00391C20.4727 7.94401 21.0098 6.9056 21.6543 5.88867C22.3132 4.87174 23.0938 3.94792 23.9961 3.11719C24.8984 2.27214 25.944 1.59896 27.1328 1.09766C28.3216 0.582031 29.668 0.324219 31.1719 0.324219C32.8906 0.324219 34.4375 0.625 35.8125 1.22656C37.2018 1.82812 38.3763 2.66602 39.3359 3.74023C40.3099 4.81445 41.0547 6.07487 41.5703 7.52148C42.0859 8.9681 42.3438 10.5221 42.3438 12.1836ZM35.8125 12.5918V12.1836C35.8125 11.2956 35.6979 10.4577 35.4688 9.66992C35.2539 8.88216 34.9316 8.19466 34.502 7.60742C34.0866 7.02018 33.5566 6.56185 32.9121 6.23242C32.2819 5.88867 31.5658 5.7168 30.7637 5.7168C29.9043 5.7168 29.1452 5.89583 28.4863 6.25391C27.8275 6.61198 27.2546 7.06315 26.7676 7.60742C26.2806 8.15169 25.8796 8.71745 25.5645 9.30469C25.2493 9.89193 25.0059 10.429 24.834 10.916C24.6621 11.3887 24.5618 11.7253 24.5332 11.9258V12.4844C24.5618 12.6992 24.6621 13.0645 24.834 13.5801C25.0059 14.0814 25.2493 14.64 25.5645 15.2559C25.8939 15.8717 26.3021 16.4661 26.7891 17.0391C27.276 17.612 27.8418 18.0918 28.4863 18.4785C29.1452 18.8509 29.89 19.0371 30.7207 19.0371C31.5228 19.0371 32.2389 18.8796 32.8691 18.5645C33.5137 18.235 34.0508 17.7767 34.4805 17.1895C34.9245 16.6022 35.2539 15.9219 35.4688 15.1484C35.6979 14.3607 35.8125 13.5085 35.8125 12.5918Z" fill="#262626" />
</svg>
